<svg xmlns="http://www.w3.org/2000/svg" viewBox="0 0 1200 800" width="1200" height="800" role="img" aria-label="Classic Shakshuka">
  <defs>
    <linearGradient id="g" x1="0" y1="0" x2="1" y2="1">
      <stop offset="0" stop-color="#eab464"/>
      <stop offset="1" stop-color="#b8471f"/>
    </linearGradient>
  </defs>
  <rect width="1200" height="800" fill="url(#g)"/>
  <circle cx="692" cy="192" r="95" fill="#fff" opacity="0.06"/><circle cx="1031" cy="449" r="91" fill="#fff" opacity="0.07"/><circle cx="330" cy="707" r="87" fill="#fff" opacity="0.08"/><circle cx="669" cy="285" r="83" fill="#fff" opacity="0.09"/>
  <g transform="translate(600 400) scale(2.1)" color="#6d2a10">
    <ellipse cx="0" cy="10" rx="86" ry="58" fill="rgba(255,255,255,.92)"/>
    <circle cx="6" cy="4" r="30" fill="currentColor" opacity=".85"/>
    <path d="M120 -34h58a20 20 0 0 1 0 40h-8" fill="none" stroke="rgba(255,255,255,.9)" stroke-width="7" stroke-linecap="round"/>
    <rect x="60" y="-34" width="64" height="70" rx="10" fill="rgba(255,255,255,.9)"/>
    <path d="M74 -60c0-10 10-10 10-20M92 -60c0-10 10-10 10-20" fill="none" stroke="rgba(255,255,255,.55)" stroke-width="6" stroke-linecap="round"/>
  </g>
</svg>
